{
	"asset":{
		"generator":"Khronos glTF Blender I/O v3.5.30",
		"version":"2.0"
	},
	"scene":0,
	"scenes":[
		{
			"name":"Scene",
			"nodes":[
				0,
				1
			]
		}
	],
	"nodes":[
		{
			"mesh":0,
			"name":"MamuMesh"
		},
		{
			"mesh":1,
			"name":"VRDeviceMesh",
			"rotation":[
				0,
				0,
				-0.008692709729075432,
				0.9999622106552124
			],
			"translation":[
				-0.020427409559488297,
				0.00017762184143066406,
				0
			]
		}
	],
	"materials":[
		{
			"doubleSided":true,
			"name":"BaseSkin",
			"pbrMetallicRoughness":{
				"baseColorFactor":[
					0.00539568904787302,
					0.17570726573467255,
					0.8000000715255737,
					1
				],
				"metallicFactor":0,
				"roughnessFactor":0.4000000059604645
			}
		},
		{
			"doubleSided":true,
			"name":"VRMaterial",
			"pbrMetallicRoughness":{
				"baseColorFactor":[
					0.800000011920929,
					0.800000011920929,
					0.800000011920929,
					1
				],
				"metallicFactor":0,
				"roughnessFactor":0.5
			}
		}
	],
	"meshes":[
		{
			"name":"MamuMesh",
			"primitives":[
				{
					"attributes":{
						"POSITION":0,
						"NORMAL":1
					},
					"indices":2,
					"material":0
				}
			]
		},
		{
			"name":"VRDeviceMesh",
			"primitives":[
				{
					"attributes":{
						"POSITION":3,
						"NORMAL":4
					},
					"indices":5,
					"material":1
				}
			]
		}
	],
	"accessors":[
		{
			"bufferView":0,
			"componentType":5126,
			"count":235,
			"max":[
				0.8029899001121521,
				1.955053448677063,
				0.978005588054657
			],
			"min":[
				-0.8029899001121521,
				1.092893362045288,
				-0.3603576421737671
			],
			"type":"VEC3"
		},
		{
			"bufferView":1,
			"componentType":5126,
			"count":235,
			"type":"VEC3"
		},
		{
			"bufferView":2,
			"componentType":5123,
			"count":1260,
			"type":"SCALAR"
		},
		{
			"bufferView":3,
			"componentType":5126,
			"count":42,
			"max":[
				0.3322641849517822,
				1.6425797939300537,
				0.352291077375412
			],
			"min":[
				-0.3322641849517822,
				1.3610436916351318,
				0.19624033570289612
			],
			"type":"VEC3"
		},
		{
			"bufferView":4,
			"componentType":5126,
			"count":42,
			"type":"VEC3"
		},
		{
			"bufferView":5,
			"componentType":5123,
			"count":240,
			"type":"SCALAR"
		}
	],
	"bufferViews":[
		{
			"buffer":0,
			"byteLength":2820,
			"byteOffset":0,
			"target":34962
		},
		{
			"buffer":0,
			"byteLength":2820,
			"byteOffset":2820,
			"target":34962
		},
		{
			"buffer":0,
			"byteLength":2520,
			"byteOffset":5640,
			"target":34963
		},
		{
			"buffer":0,
			"byteLength":504,
			"byteOffset":8160,
			"target":34962
		},
		{
			"buffer":0,
			"byteLength":504,
			"byteOffset":8664,
			"target":34962
		},
		{
			"buffer":0,
			"byteLength":480,
			"byteOffset":9168,
			"target":34963
		}
	],
	"buffers":[
		{
			"byteLength":9648,
			"uri":"data:application/octet-stream;base64,"
		}
	]
}
