{
	"asset":{
		"generator":"Khronos glTF Blender I/O v3.5.30",
		"version":"2.0"
	},
	"scene":0,
	"scenes":[
		{
			"name":"Scene",
			"nodes":[
				0,
				1,
				2
			]
		}
	],
	"nodes":[
		{
			"mesh":0,
			"name":"MamuMesh"
		},
		{
			"mesh":1,
			"name":"RightEar"
		},
		{
			"mesh":2,
			"name":"VRDeviceMesh"
		}
	],
	"animations":[
		{
			"channels":[
				{
					"sampler":0,
					"target":{
						"node":0,
						"path":"translation"
					}
				},
				{
					"sampler":1,
					"target":{
						"node":0,
						"path":"rotation"
					}
				},
				{
					"sampler":2,
					"target":{
						"node":0,
						"path":"scale"
					}
				}
			],
			"name":"MamuMesh",
			"samplers":[
				{
					"input":12,
					"interpolation":"LINEAR",
					"output":13
				},
				{
					"input":12,
					"interpolation":"LINEAR",
					"output":14
				},
				{
					"input":12,
					"interpolation":"LINEAR",
					"output":15
				}
			]
		},
		{
			"channels":[
				{
					"sampler":0,
					"target":{
						"node":1,
						"path":"translation"
					}
				},
				{
					"sampler":1,
					"target":{
						"node":1,
						"path":"rotation"
					}
				},
				{
					"sampler":2,
					"target":{
						"node":1,
						"path":"scale"
					}
				}
			],
			"name":"RightEar",
			"samplers":[
				{
					"input":12,
					"interpolation":"LINEAR",
					"output":16
				},
				{
					"input":12,
					"interpolation":"LINEAR",
					"output":17
				},
				{
					"input":12,
					"interpolation":"LINEAR",
					"output":18
				}
			]
		},
		{
			"channels":[
				{
					"sampler":0,
					"target":{
						"node":2,
						"path":"translation"
					}
				},
				{
					"sampler":1,
					"target":{
						"node":2,
						"path":"rotation"
					}
				},
				{
					"sampler":2,
					"target":{
						"node":2,
						"path":"scale"
					}
				}
			],
			"name":"VRDeviceMesh",
			"samplers":[
				{
					"input":12,
					"interpolation":"LINEAR",
					"output":19
				},
				{
					"input":12,
					"interpolation":"LINEAR",
					"output":20
				},
				{
					"input":12,
					"interpolation":"LINEAR",
					"output":21
				}
			]
		}
	],
	"materials":[
		{
			"doubleSided":true,
			"name":"BaseSkin",
			"pbrMetallicRoughness":{
				"baseColorFactor":[
					0.00539568904787302,
					0.17570726573467255,
					0.8000000715255737,
					1
				],
				"metallicFactor":0,
				"roughnessFactor":0.4000000059604645
			}
		},
		{
			"doubleSided":true,
			"name":"BaseSkin.001",
			"pbrMetallicRoughness":{
				"baseColorFactor":[
					0.00539568904787302,
					0.17570726573467255,
					0.8000000715255737,
					1
				],
				"metallicFactor":0,
				"roughnessFactor":0.4000000059604645
			}
		},
		{
			"doubleSided":true,
			"name":"VRMaterial",
			"pbrMetallicRoughness":{
				"baseColorFactor":[
					0.800000011920929,
					0.800000011920929,
					0.800000011920929,
					1
				],
				"metallicFactor":0,
				"roughnessFactor":0.5
			}
		}
	],
	"meshes":[
		{
			"name":"MamuMesh",
			"primitives":[
				{
					"attributes":{
						"POSITION":0,
						"TEXCOORD_0":1,
						"NORMAL":2
					},
					"indices":3,
					"material":0
				}
			]
		},
		{
			"name":"RightEar",
			"primitives":[
				{
					"attributes":{
						"POSITION":4,
						"TEXCOORD_0":5,
						"NORMAL":6
					},
					"indices":7,
					"material":1
				}
			]
		},
		{
			"name":"VRDeviceMesh",
			"primitives":[
				{
					"attributes":{
						"POSITION":8,
						"TEXCOORD_0":9,
						"NORMAL":10
					},
					"indices":11,
					"material":2
				}
			]
		}
	],
	"accessors":[
		{
			"bufferView":0,
			"componentType":5126,
			"count":821,
			"max":[
				0.38174811005592346,
				1.9231414794921875,
				0.5691349506378174
			],
			"min":[
				-0.37081295251846313,
				0.5488473176956177,
				-0.33313870429992676
			],
			"type":"VEC3"
		},
		{
			"bufferView":1,
			"componentType":5126,
			"count":821,
			"type":"VEC2"
		},
		{
			"bufferView":2,
			"componentType":5126,
			"count":821,
			"type":"VEC3"
		},
		{
			"bufferView":3,
			"componentType":5123,
			"count":3528,
			"type":"SCALAR"
		},
		{
			"bufferView":4,
			"componentType":5126,
			"count":306,
			"max":[
				0.7692543864250183,
				1.915704369544983,
				0.10415991395711899
			],
			"min":[
				-0.7692544460296631,
				1.123801827430725,
				0.047366827726364136
			],
			"type":"VEC3"
		},
		{
			"bufferView":5,
			"componentType":5126,
			"count":306,
			"type":"VEC2"
		},
		{
			"bufferView":6,
			"componentType":5126,
			"count":306,
			"type":"VEC3"
		},
		{
			"bufferView":7,
			"componentType":5123,
			"count":1536,
			"type":"SCALAR"
		},
		{
			"bufferView":8,
			"componentType":5126,
			"count":63,
			"max":[
				0.3322641849517822,
				1.6425797939300537,
				0.352291077375412
			],
			"min":[
				-0.3322641849517822,
				1.3610436916351318,
				0.19624033570289612
			],
			"type":"VEC3"
		},
		{
			"bufferView":9,
			"componentType":5126,
			"count":63,
			"type":"VEC2"
		},
		{
			"bufferView":10,
			"componentType":5126,
			"count":63,
			"type":"VEC3"
		},
		{
			"bufferView":11,
			"componentType":5123,
			"count":240,
			"type":"SCALAR"
		},
		{
			"bufferView":12,
			"componentType":5126,
			"count":1436,
			"max":[
				59.833333333333336
			],
			"min":[
				0.041666666666666664
			],
			"type":"SCALAR"
		},
		{
			"bufferView":13,
			"componentType":5126,
			"count":1436,
			"type":"VEC3"
		},
		{
			"bufferView":14,
			"componentType":5126,
			"count":1436,
			"type":"VEC4"
		},
		{
			"bufferView":15,
			"componentType":5126,
			"count":1436,
			"type":"VEC3"
		},
		{
			"bufferView":16,
			"componentType":5126,
			"count":1436,
			"type":"VEC3"
		},
		{
			"bufferView":17,
			"componentType":5126,
			"count":1436,
			"type":"VEC4"
		},
		{
			"bufferView":18,
			"componentType":5126,
			"count":1436,
			"type":"VEC3"
		},
		{
			"bufferView":19,
			"componentType":5126,
			"count":1436,
			"type":"VEC3"
		},
		{
			"bufferView":20,
			"componentType":5126,
			"count":1436,
			"type":"VEC4"
		},
		{
			"bufferView":21,
			"componentType":5126,
			"count":1436,
			"type":"VEC3"
		}
	],
	"bufferViews":[
		{
			"buffer":0,
			"byteLength":9852,
			"byteOffset":0,
			"target":34962
		},
		{
			"buffer":0,
			"byteLength":6568,
			"byteOffset":9852,
			"target":34962
		},
		{
			"buffer":0,
			"byteLength":9852,
			"byteOffset":16420,
			"target":34962
		},
		{
			"buffer":0,
			"byteLength":7056,
			"byteOffset":26272,
			"target":34963
		},
		{
			"buffer":0,
			"byteLength":3672,
			"byteOffset":33328,
			"target":34962
		},
		{
			"buffer":0,
			"byteLength":2448,
			"byteOffset":37000,
			"target":34962
		},
		{
			"buffer":0,
			"byteLength":3672,
			"byteOffset":39448,
			"target":34962
		},
		{
			"buffer":0,
			"byteLength":3072,
			"byteOffset":43120,
			"target":34963
		},
		{
			"buffer":0,
			"byteLength":756,
			"byteOffset":46192,
			"target":34962
		},
		{
			"buffer":0,
			"byteLength":504,
			"byteOffset":46948,
			"target":34962
		},
		{
			"buffer":0,
			"byteLength":756,
			"byteOffset":47452,
			"target":34962
		},
		{
			"buffer":0,
			"byteLength":480,
			"byteOffset":48208,
			"target":34963
		},
		{
			"buffer":0,
			"byteLength":5744,
			"byteOffset":48688
		},
		{
			"buffer":0,
			"byteLength":17232,
			"byteOffset":54432
		},
		{
			"buffer":0,
			"byteLength":22976,
			"byteOffset":71664
		},
		{
			"buffer":0,
			"byteLength":17232,
			"byteOffset":94640
		},
		{
			"buffer":0,
			"byteLength":17232,
			"byteOffset":111872
		},
		{
			"buffer":0,
			"byteLength":22976,
			"byteOffset":129104
		},
		{
			"buffer":0,
			"byteLength":17232,
			"byteOffset":152080
		},
		{
			"buffer":0,
			"byteLength":17232,
			"byteOffset":169312
		},
		{
			"buffer":0,
			"byteLength":22976,
			"byteOffset":186544
		},
		{
			"buffer":0,
			"byteLength":17232,
			"byteOffset":209520
		}
	],
	"buffers":[
		{
			"byteLength":226752,
			"uri":"data:application/octet-stream;base64,"
		}
	]
}
